<svg width="182" height="2" fill="none" xmlns="http://www.w3.org/2000/svg"><path d="M1.001 2A1.002 1.002 0 010 1a1 1 0 011.001-1 1.002 1.002 0 011.002 1A1 1 0 011 2zm10.014 0a1.002 1.002 0 01-1.002-1 1 1 0 011.002-1 1.002 1.002 0 011.001 1 1 1 0 01-1.001 1zm10.013 0a1.002 1.002 0 01-1.001-1 1 1 0 011.001-1 1.002 1.002 0 011.002 1 1 1 0 01-1.002 1zm10.014 0a1.002 1.002 0 01-1.002-1 1 1 0 011.71-.707A1 1 0 0131.042 2zm10.013 0a1.002 1.002 0 01-1.001-1 1 1 0 011.001-1 1.002 1.002 0 011.002 1 1 1 0 01-1.002 1zM51.07 2a1.002 1.002 0 01-1.002-1 1 1 0 011.71-.707A1 1 0 0151.069 2zm10.013 0a1.002 1.002 0 01-1.001-1 1 1 0 011.001-1 1.002 1.002 0 011.001 1 1 1 0 01-1 1zM6.008 2a1.002 1.002 0 01-1.001-1 1 1 0 011.001-1A1.002 1.002 0 017.01 1a1 1 0 01-1 1zm10.014 0a1.002 1.002 0 01-1.002-1 1 1 0 011.002-1 1.002 1.002 0 011 1 1 1 0 01-1 1zm10.013 0a1.002 1.002 0 01-1.001-1 1 1 0 011.001-1 1.002 1.002 0 011.001 1 1 1 0 01-1.001 1zm10.013 0a1.002 1.002 0 01-1-1 1 1 0 011-1 1.002 1.002 0 011.002 1 1 1 0 01-1.002 1zm10.014 0a1.002 1.002 0 01-1.002-1 1 1 0 011.002-1 1.002 1.002 0 011.001 1 1 1 0 01-1.001 1zm10.013 0a1.002 1.002 0 01-1.001-1 1 1 0 011.001-1 1.002 1.002 0 011.002 1 1 1 0 01-1.002 1zm9.903 0a1.002 1.002 0 01-1-1 1 1 0 011-1 1.002 1.002 0 011.002 1 1 1 0 01-1.002 1zm10.014 0a1.002 1.002 0 01-.708-1.707A1.002 1.002 0 0176.7 1.707a1.002 1.002 0 01-.708.293zm-5.007 0a1.002 1.002 0 01-1.001-1 1 1 0 011.001-1 1.002 1.002 0 011.002 1 1 1 0 01-1.002 1zM81 2a1.002 1.002 0 01-1.002-1A1 1 0 0181 0a1.002 1.002 0 011 1 1 1 0 01-1.001 1zm5.001 0A1.002 1.002 0 0185 1a1 1 0 011.001-1 1.002 1.002 0 011.002 1A1 1 0 0186 2zm10.014 0a1.002 1.002 0 01-1.002-1 1 1 0 011.002-1 1.002 1.002 0 011.001 1 1 1 0 01-1.001 1zm10.013 0a1.003 1.003 0 01-1.001-1 .998.998 0 011.001-1 1 1 0 110 2zm10.014 0a1 1 0 11-.002-2 1 1 0 01.002 2zm10.013 0a1.003 1.003 0 01-1.001-1 .998.998 0 011.001-1 1.002 1.002 0 01.708 1.707 1.002 1.002 0 01-.708.293zm10.014 0a1 1 0 11-.002-2 1 1 0 01.002 2zm10.013 0a1.002 1.002 0 01-.708-1.707 1.002 1.002 0 011.416 1.414 1.002 1.002 0 01-.708.293zM91.008 2a1.002 1.002 0 01-1.001-1 1 1 0 011.001-1 1.002 1.002 0 011.001 1 1 1 0 01-1 1zm10.014 0a1.004 1.004 0 01-1.002-1 1.002 1.002 0 012.003 0 1.002 1.002 0 01-1.001 1zm10.013 0a1.002 1.002 0 01-.708-1.707 1.002 1.002 0 011.416 1.414 1.002 1.002 0 01-.708.293zm10.013 0a1.003 1.003 0 01-1.001-1 1.002 1.002 0 012.003 0 1 1 0 01-1.002 1zm10.014 0a1.002 1.002 0 01-.708-1.707 1.002 1.002 0 011.416 1.414 1.003 1.003 0 01-.708.293zm10.013 0a1.003 1.003 0 01-1.001-1 .998.998 0 011.001-1 1 1 0 110 2zm9.903 0a1.003 1.003 0 01-1.001-1 1.002 1.002 0 012.003 0 1.002 1.002 0 01-1.002 1zm10.014 0a1.002 1.002 0 01-.708-1.707 1.002 1.002 0 011.416 1.414 1.003 1.003 0 01-.708.293zm-5.007 0a1.003 1.003 0 01-1.001-1 .998.998 0 011.001-1 1.002 1.002 0 01.708 1.707 1.002 1.002 0 01-.708.293zm10.014 0a1 1 0 11-.002-2 1 1 0 01.002 2zm4.979 0a1.003 1.003 0 01-1.001-1 1.002 1.002 0 012.003 0 1.002 1.002 0 01-1.002 1zm10.014 0a1.002 1.002 0 01-.708-1.707 1.002 1.002 0 011.416 1.414 1.003 1.003 0 01-.708.293zm-5.007 0a1.003 1.003 0 01-1.001-1 .998.998 0 011.001-1 1.002 1.002 0 01.708 1.707 1.002 1.002 0 01-.708.293z" fill="#BCBCBC"/></svg>