<svg width="25" height="25" fill="none" xmlns="http://www.w3.org/2000/svg"><path d="M13.14.688C6.866.322 1.466 5.09 1.103 11.316a11.228 11.228 0 001.227 5.802l-2.291 5.65a.301.301 0 00.354.405l6.122-1.559a11.475 11.475 0 005.307 1.657c6.273.366 11.672-4.401 12.035-10.627.364-6.227-4.444-11.59-10.717-11.956z" fill="#4CAF50"/><path d="M18.978 16.678c-.265.75-1.319 1.37-2.159 1.552-.575.122-1.325.22-3.852-.828-3.233-1.339-5.315-4.624-5.477-4.837-.156-.213-1.306-1.74-1.306-3.318S6.985 6.9 7.308 6.57c.266-.27.704-.394 1.125-.394.136 0 .259.006.369.012.323.014.485.033.698.543.265.64.912 2.218.989 2.38.078.162.156.382.046.596-.103.22-.193.317-.356.504-.162.187-.316.33-.478.53-.149.175-.316.363-.13.686.188.316.834 1.37 1.785 2.218 1.228 1.093 2.224 1.442 2.58 1.59.265.11.582.084.775-.122.246-.265.55-.705.86-1.138.22-.311.498-.35.789-.24.297.103 1.869.88 2.192 1.041.323.162.536.24.614.376.077.136.077.775-.188 1.526z" fill="#FAFAFA"/></svg>