<svg width="87" height="90" fill="none" xmlns="http://www.w3.org/2000/svg"><path d="M86.085 43.62L81 41.475V34.5a1.5 1.5 0 00-1.5-1.5H69a1.5 1.5 0 00-1.5 1.5v1.26L57 31.32V10.5a1.5 1.5 0 00-.345-.96l-7.5-9A1.489 1.489 0 0048 0h-9a1.488 1.488 0 00-1.155.54l-7.5 9a1.5 1.5 0 00-.345.96v20.82l-12 5.07V34.5a1.5 1.5 0 00-1.5-1.5H6a1.5 1.5 0 00-1.5 1.5v7.605L.915 43.62A1.5 1.5 0 000 45v10.5a1.517 1.517 0 00.525 1.14c.27.236.617.364.975.36.075.002.15-.002.225-.015l5.37-.825.42 2.58A1.5 1.5 0 009 60h4.5a1.5 1.5 0 001.485-1.26l.645-3.9 14.385-2.22a.46.46 0 00.015.15l3.195 17.58-14.205 4.725A1.521 1.521 0 0018 76.5V84a1.5 1.5 0 001.5 1.5h16.47l.06.27A1.5 1.5 0 0037.5 87h1.62L39 88.38c-.025.417.115.826.39 1.14a1.543 1.543 0 001.11.48h6a1.544 1.544 0 001.11-.48c.275-.314.415-.723.39-1.14L47.88 87h1.62a1.5 1.5 0 001.47-1.23l.06-.27H67.5A1.5 1.5 0 0069 84v-7.5a1.521 1.521 0 00-1.02-1.425L53.775 70.35l3.195-17.58a.463.463 0 00.015-.15l12.84 1.98.69 4.14A1.5 1.5 0 0072 60h4.5a1.5 1.5 0 001.485-1.245l.465-2.82 6.825 1.05c.074.013.15.017.225.015.358.004.706-.124.975-.36A1.517 1.517 0 0087 55.5V45a1.5 1.5 0 00-.915-1.38zM7.5 36H15v1.665L7.5 40.83V36zm4.725 21h-1.95l-.225-1.305 2.46-.375-.285 1.68zM30 49.59L3 53.745V45.99l27-11.415V49.59zM21 82.5v-4.92l12.765-4.26 1.665 9.18H21zM42.135 87l1.245-15h.24l1.245 15h-2.73zM66 77.58v4.92H51.57l1.665-9.18L66 77.58zM54 52.365L48.255 84h-.63L46.5 70.38A1.515 1.515 0 0045 69h-3a1.515 1.515 0 00-1.5 1.38L39.375 84h-.63L33 52.365V11.04L39.705 3h7.59L54 11.04v41.325zM70.5 36H78v4.2l-7.5-3.18V36zm4.725 21h-1.95l-.33-1.92 2.55.39-.27 1.53zM84 53.745L57 49.59V34.575L84 45.99v7.755z" fill="#315DC5"/><path d="M37.94 10.94l-3 3 2.12 2.12 2.561-2.56h7.758l2.56 2.56 2.121-2.12-3-3A1.5 1.5 0 0048 10.5h-9a1.5 1.5 0 00-1.06.44z" fill="#315DC5"/></svg>