<svg width="75" height="90" fill="none" xmlns="http://www.w3.org/2000/svg"><path d="M32.901 14.646c.033-.383.081-.763.081-1.153C32.982 6.053 26.93 0 19.489 0 12.05 0 5.997 6.052 5.997 13.493c0 .39.048.77.08 1.153C2.408 16.46 0 20.212 0 24.362v2.623a1.5 1.5 0 002.398 1.2l5.997-4.498-1.798-2.399-3.59 2.691c.128-2.58 1.54-4.903 3.69-6.256a13.401 13.401 0 006.643 7.763H8.259a4.517 4.517 0 00-4.325 3.262l-2.378 8.32c-.129.452-.038.938.245 1.315.284.374.728.595 1.198.595v5.826l-1.588 6.85a4.676 4.676 0 00.224 3.747 4.652 4.652 0 002.405 2.176L1.6 63.926A1.502 1.502 0 003 65.964h5.996v17.063c-.921 1.055-1.5 2.417-1.5 3.925v1.5c0 .828.671 1.498 1.5 1.498h8.995c.829 0 1.5-.67 1.5-1.499 0 .829.67 1.5 1.498 1.5h8.995c.83 0 1.5-.671 1.5-1.5v-1.499c0-1.507-.578-2.87-1.5-3.925V65.964h5.997a1.5 1.5 0 001.4-2.038l-2.442-6.349a4.654 4.654 0 002.405-2.176 4.674 4.674 0 00.224-3.747l-1.587-6.85v-5.826c.47 0 .914-.22 1.198-.595.282-.377.373-.863.244-1.315l-2.377-8.32a4.517 4.517 0 00-4.325-3.262h-5.083a13.401 13.401 0 006.643-7.763c2.15 1.354 3.563 3.677 3.69 6.257l-3.59-2.691-1.797 2.398 5.996 4.497a1.488 1.488 0 001.57.142 1.5 1.5 0 00.828-1.34v-2.624c0-4.15-2.407-7.902-6.077-9.716zM19.489 2.998c5.19 0 9.502 3.793 10.337 8.75a6.157 6.157 0 01-4.341-4.443l-.046-.178a1.495 1.495 0 00-1.055-1.076 1.487 1.487 0 00-1.457.385l-3.746 3.746a6.228 6.228 0 01-4.372 1.811H9.115c.731-5.076 5.099-8.995 10.374-8.995zM6.818 29.571a1.503 1.503 0 011.44-1.087h.737v7.496H4.987l1.831-6.41zM4.304 54.035a1.654 1.654 0 01-.063-1.385 1.59 1.59 0 00.07-.218l1.648-7.119a1.53 1.53 0 00.038-.338v-5.997h2.998v5.717l-3.873 10.07c-.343-.154-.64-.386-.818-.73zm6.19 32.917a3.002 3.002 0 012.999-2.998 3.002 3.002 0 012.998 2.998h-5.997zm1.5-5.784V65.964h2.998v15.204a5.93 5.93 0 00-1.5-.213 5.92 5.92 0 00-1.499.213zm8.994 1.86c-.921 1.054-1.499 2.416-1.499 3.924 0-1.507-.578-2.87-1.499-3.925V65.964h2.998v17.063zm1.5 3.924a3.002 3.002 0 012.998-2.998 3.002 3.002 0 012.998 2.998h-5.996zm1.499-5.784V65.964h2.998v15.204a5.93 5.93 0 00-1.5-.213 5.92 5.92 0 00-1.498.213zm5.997-52.684h.736c.666 0 1.259.447 1.44 1.087l1.832 6.41h-4.008v-7.497zm0 10.494h2.998v5.997c0 .114.013.227.038.338l1.648 7.118c.018.075.041.148.07.219.182.456.159.948-.064 1.385-.176.344-.473.575-.818.73l-3.873-10.07v-5.717zm3.813 23.987H5.181l6.343-16.49h15.931l6.342 16.49zm-6.812-34.48v14.991H11.993V28.484h1.5v7.496c0 .829.67 1.5 1.499 1.5h8.995a1.5 1.5 0 001.499-1.5v-7.496h1.5zM16.491 34.48v-4.733a7.882 7.882 0 002.998.596c1.021 0 2.04-.201 2.999-.596v4.733H16.49zm6.932-11.264a1.5 1.5 0 00-.935 1.39v1.677a4.84 4.84 0 01-5.997 0v-1.678a1.5 1.5 0 00-.936-1.39 10.446 10.446 0 01-6.448-8.224h5.702a9.116 9.116 0 006.491-2.69l2.113-2.111a9.147 9.147 0 006.47 4.645 10.439 10.439 0 01-6.46 8.38zM74.94 37.068l-2.378-8.32a4.517 4.517 0 00-4.325-3.262H63.18a13.43 13.43 0 007.319-11.993C70.499 6.053 64.446 0 57.006 0S43.514 6.053 43.514 13.493a13.43 13.43 0 007.318 11.993h-5.056a4.517 4.517 0 00-4.325 3.262l-2.378 8.32a1.502 1.502 0 001.442 1.911v5.89l-.636 4.453a6.701 6.701 0 001.572 5.338c.864.995 2 1.673 3.242 2.026l-1.162 7.55a1.5 1.5 0 001.482 1.728h1.5v17.064c-.922 1.054-1.5 2.417-1.5 3.925v1.499c0 .829.67 1.499 1.5 1.499h8.994c.829 0 1.5-.67 1.5-1.5 0 .83.67 1.5 1.498 1.5h8.996c.828 0 1.499-.67 1.499-1.5v-1.498c0-1.508-.578-2.87-1.5-3.925V65.964H69c.438 0 .853-.19 1.137-.523a1.49 1.49 0 00.344-1.205l-1.161-7.55c1.241-.353 2.378-1.031 3.242-2.026a6.703 6.703 0 001.572-5.34l-.637-4.452v-5.89c.47 0 .914-.22 1.198-.595.283-.376.373-.862.244-1.315zm-10.438-8.583v.696l-2.808 1.871-1.913-1.913 1.964-.654h2.757zM57.006 2.999c5.19 0 9.502 3.793 10.337 8.75a6.157 6.157 0 01-4.341-4.443l-.046-.179a1.495 1.495 0 00-1.055-1.076 1.487 1.487 0 00-1.457.385l-3.746 3.747a6.228 6.228 0 01-4.372 1.81h-5.694C47.364 6.918 51.731 3 57.006 3zM46.624 14.992h5.702a9.116 9.116 0 006.491-2.69l2.113-2.11a9.148 9.148 0 006.47 4.644 10.439 10.439 0 01-6.46 8.38 1.5 1.5 0 00-.935 1.39v1.3l-2.999.999-2.998-1v-1.299a1.5 1.5 0 00-.936-1.39 10.446 10.446 0 01-6.448-8.224zm2.886 13.493h2.757l1.965.654-1.914 1.913-2.807-1.87v-.697zm0 4.3l2.167 1.444c.593.399 1.385.32 1.892-.187l3.438-3.438 3.437 3.438a1.497 1.497 0 001.892.187l2.167-1.444v10.691h-5.997V32.982h-2.998v10.494H49.51V32.785zm-2.998 12.076l-1.359 8.835a3.695 3.695 0 01-1.437-1 3.706 3.706 0 01-.868-2.95l.651-4.558c.01-.07.015-.142.015-.212v-5.997h2.998v5.882zm0-8.88h-4.008l1.831-6.41a1.503 1.503 0 011.44-1.086h.737v7.495zm1.5 50.971a3.002 3.002 0 012.998-2.998 3.002 3.002 0 012.998 2.998h-5.997zm1.498-5.784V65.964h2.999v15.204a5.929 5.929 0 00-1.5-.212 5.92 5.92 0 00-1.498.212zm8.995 1.86c-.92 1.054-1.499 2.417-1.499 3.924 0-1.507-.577-2.87-1.499-3.924V65.964h2.998v17.064zm1.5 3.924a3.002 3.002 0 012.998-2.998 3.002 3.002 0 012.998 2.998h-5.996zm1.499-5.784V65.964h2.998v15.204a5.93 5.93 0 00-1.499-.212 5.92 5.92 0 00-1.5.212zm-2.998-18.203V53.97h-2.999v8.995h-8.746l2.536-16.49h15.418l2.536 16.49h-8.746zm11.79-10.27a3.695 3.695 0 01-1.436 1l-1.36-8.834V38.98h3v5.996c0 .07.004.142.014.213l.652 4.556a3.707 3.707 0 01-.868 2.951zM67.502 35.98v-7.495h.736a1.5 1.5 0 011.44 1.086l1.832 6.41h-4.008z" fill="#315DC5"/></svg>