<svg width="90" height="90" fill="none" xmlns="http://www.w3.org/2000/svg"><path d="M88.5 0H27a1.5 1.5 0 00-1.5 1.5V42H15v-3a1.5 1.5 0 00-1.5-1.5H6A1.5 1.5 0 004.5 39v3h-3A1.5 1.5 0 000 43.5v45A1.5 1.5 0 001.5 90h66a1.5 1.5 0 001.5-1.5v-36h19.5A1.5 1.5 0 0090 51V1.5A1.5 1.5 0 0088.5 0zm-81 40.5H12V42H7.5v-1.5zM3 58.5h16.815a16.404 16.404 0 000 15H3v-15zM66 87H3V76.5h18.78a16.484 16.484 0 0025.44 0H66V87zM21 66a13.5 13.5 0 1113.5 13.5A13.521 13.521 0 0121 66zm45 7.5H49.185a16.405 16.405 0 000-15H66v15zm0-18H47.22a16.484 16.484 0 00-25.44 0H3V45h63v10.5zm21-6H69v-6a1.5 1.5 0 00-1.5-1.5h-39v-3.735l8.985-6.405L42.6 35.7c.261.192.576.297.9.3a1.49 1.49 0 00.825-.255l3.9-2.595 3.795 1.275a1.542 1.542 0 001.545-.36l1.935-1.95 1.935 1.95a1.512 1.512 0 002.13 0l5.4-5.4 5.175 1.29a1.45 1.45 0 001.185-.21l3.9-2.595 3.795 1.275a1.51 1.51 0 001.545-.36l1.935-1.95 4.5 4.5V49.5zM40.035 30.03l7.8-5.565L53.385 30l-1.29 1.29-3.615-1.215a1.532 1.532 0 00-1.305.18l-3.63 2.415-3.51-2.64zm27.405-3.84L75 18.615 80.385 24l-1.29 1.29-3.615-1.215a1.532 1.532 0 00-1.305.18l-3.96 2.625-2.775-.69zm19.56.195l-10.935-10.95a1.512 1.512 0 00-2.13 0L58.5 30.885l-9.435-9.45a1.5 1.5 0 00-1.935-.15L28.5 34.59V3H87v23.385z" fill="#315DC5"/><path d="M42 19.5a6 6 0 100-12 6 6 0 000 12zm0-9a3 3 0 110 6 3 3 0 010-6zM34.5 54a12 12 0 1012 12 12.013 12.013 0 00-12-12zm0 21a9 9 0 119-9 9.01 9.01 0 01-9 9zM63 46.5h-9a1.5 1.5 0 00-1.5 1.5v4.5A1.5 1.5 0 0054 54h9a1.5 1.5 0 001.5-1.5V48a1.5 1.5 0 00-1.5-1.5zM61.5 51h-6v-1.5h6V51z" fill="#315DC5"/></svg>