<svg width="90" height="90" fill="none" xmlns="http://www.w3.org/2000/svg"><path d="M67.5 57H24a3 3 0 00-3 3v18a3 3 0 003 3h43.5a3 3 0 003-3V60a3 3 0 00-3-3zm0 3v4.5H24V60h43.5zM24 78V67.5h43.5V78H24z" fill="#FFA714"/><path d="M88.5 61.5H87V54a5.85 5.85 0 00-.375-2.04c.236-.265.37-.605.375-.96v-4.5a1.5 1.5 0 00-1.5-1.5H78V34.5a7.5 7.5 0 007.5-7.5v-9a7.5 7.5 0 00-7.5-7.5h-9v-3A1.5 1.5 0 0067.5 6H60a1.5 1.5 0 00-1.5 1.5v3h-1.875L54.57 3.27A4.527 4.527 0 0050.235 0h-10.47a4.527 4.527 0 00-4.335 3.27l-2.055 7.23H31.5v-3A1.5 1.5 0 0030 6h-7.5A1.5 1.5 0 0021 7.5v3h-9A7.5 7.5 0 004.5 18v9a7.5 7.5 0 007.5 7.5V45H4.5A1.5 1.5 0 003 46.5V51c.006.355.139.695.375.96A5.85 5.85 0 003 54v7.5H1.5A1.5 1.5 0 000 63v13.5A4.513 4.513 0 004.5 81H12v1.5a7.5 7.5 0 007.5 7.5h51a7.5 7.5 0 007.5-7.5V81h7.5a4.513 4.513 0 004.5-4.5V63a1.5 1.5 0 00-1.5-1.5zM12 78H4.5A1.5 1.5 0 013 76.5v-12h9V78zm0-16.5H6V54a3.034 3.034 0 01.405-1.5h5.19c.263.456.402.973.405 1.5v7.5zm0-12H6V48h6v1.5zM84 48v1.5h-6V48h6zm0 6v7.5h-6V54a3.034 3.034 0 01.405-1.5h5.19c.263.456.402.973.405 1.5zM61.5 9H66v30h-4.5V9zM69 42v3H58.5v-3H69zm-3 6v1.5h-4.5V48H66zM38.325 4.08A1.5 1.5 0 0139.765 3h10.47a1.5 1.5 0 011.44 1.08l1.83 6.42h-17.01l1.83-6.42zM31.5 13.5h27v18h-27v-18zM24 9h4.5v30H24V9zm7.5 33v3H21v-3h10.5zm-3 6v1.5H24V48h4.5zM12 31.5A4.513 4.513 0 017.5 27v-9a4.514 4.514 0 014.5-4.5h9v18h-9zm63 51a4.513 4.513 0 01-4.5 4.5h-51a4.514 4.514 0 01-4.5-4.5v-48h6V39h-1.5a1.5 1.5 0 00-1.5 1.5v6a1.5 1.5 0 001.5 1.5H21v3a1.5 1.5 0 001.5 1.5H30a1.5 1.5 0 001.5-1.5v-3H33a1.5 1.5 0 001.5-1.5v-6A1.5 1.5 0 0033 39h-1.5v-4.5h27V39H57a1.5 1.5 0 00-1.5 1.5v6A1.5 1.5 0 0057 48h1.5v3a1.5 1.5 0 001.5 1.5h7.5A1.5 1.5 0 0069 51v-3h1.5a1.5 1.5 0 001.5-1.5v-6a1.5 1.5 0 00-1.5-1.5H69v-4.5h6v48zm-6-51v-18h9a4.514 4.514 0 014.5 4.5v9a4.513 4.513 0 01-4.5 4.5h-9zm18 45a1.5 1.5 0 01-1.5 1.5H78V64.5h9v12z" fill="#FFA714"/></svg>